<?xml version="1.0" ?><!DOCTYPE svg  PUBLIC '-//W3C//DTD SVG 1.1//EN'  'http://www.w3.org/Graphics/SVG/1.1/DTD/svg11.dtd'><svg enable-background="new 0 0 100 100" height="100px" version="1.1" viewBox="0 0 100 100" width="100px" xml:space="preserve" xmlns="http://www.w3.org/2000/svg" xmlns:xlink="http://www.w3.org/1999/xlink"><g id="Layer_1"><g><polygon fill="#F58435" points="55.939,49.98 23.196,49.98 23.196,72.6 55.939,65.115   "/><polygon fill="#F58435" points="65.743,49.98 30.159,49.98 30.159,76.082 65.743,65.98   "/><polygon fill="#F58435" points="73.498,49.98 38.849,49.98 38.849,80.426 73.498,67.75   "/><polygon fill="#F58435" points="49.996,86 49.996,49.979 79.802,49.979 79.802,71.098   "/><polygon fill="#9D5025" points="23.196,49.98 23.196,72.6 20.208,71.105 20.208,49.98   "/><polygon fill="#9D5025" points="30.159,49.98 30.159,76.082 26.496,74.25 26.496,49.98   "/><polygon fill="#9D5025" points="38.849,49.98 38.849,80.426 34.249,78.127 34.249,49.98   "/><polygon fill="#9D5025" points="44.055,83.029 44.055,49.98 49.995,49.98 49.995,86   "/><polygon fill="#F58435" points="79.808,42.736 49.999,37.613 49.999,14 79.808,28.902   "/><polygon fill="#9D5025" points="20.192,42.736 50,37.613 50,14 20.192,28.902   "/><polygon fill="#6B3B19" points="79.808,42.736 49.999,44.857 20.192,42.736 49.999,37.613   "/></g></g></svg>